<svg width="18" height="18" fill="none" xmlns="http://www.w3.org/2000/svg"><g clip-path="url(#clip0)"><path d="M17.51 13.21l-2.512-2.512c-.897-.897-2.422-.538-2.781.628-.27.808-1.166 1.256-1.974 1.077-1.794-.449-4.216-2.781-4.665-4.665-.269-.808.27-1.705 1.077-1.974 1.166-.359 1.525-1.884.628-2.781L4.77.471c-.718-.628-1.794-.628-2.422 0L.644 2.176C-1.06 3.97.824 8.725 5.04 12.94c4.217 4.216 8.971 6.19 10.765 4.396l1.705-1.705c.628-.717.628-1.794 0-2.422z" fill="#47809F"/></g><defs><clipPath id="clip0"><path fill="#fff" d="M0 0h18v18H0z"/></clipPath></defs></svg>