<svg width="113" height="57" fill="none" xmlns="http://www.w3.org/2000/svg"><path d="M7.317 16.856c0 1.734.466 3.43 1.34 4.872.872 1.442 2.113 2.566 3.565 3.23a7.256 7.256 0 004.591.499c1.542-.339 2.958-1.174 4.069-2.4 1.111-1.227 1.868-2.79 2.175-4.49a9.616 9.616 0 00-.452-5.067c-.602-1.602-1.62-2.972-2.927-3.935-1.307-.964-2.843-1.478-4.415-1.478-2.107 0-4.128.924-5.619 2.568-1.49 1.645-2.327 3.875-2.327 6.201zM15.307 0c4.036.001 7.908 1.76 10.777 4.892 2.868 3.133 4.5 7.389 4.542 11.842l9.535 15.102a9.798 9.798 0 011.192-.073c2.053-.001 4.067.614 5.827 1.779l43.218-19.17c.462-2.325 1.51-4.458 3.024-6.153 1.514-1.695 3.43-2.883 5.53-3.427a10.412 10.412 0 016.333.352c2.039.774 3.839 2.168 5.19 4.022 1.352 1.854 2.201 4.093 2.449 6.456a13.773 13.773 0 01-1.046 6.903c-.931 2.147-2.393 3.958-4.218 5.227-1.824 1.268-3.937 1.94-6.093 1.94-2.052.002-4.067-.612-5.827-1.777L52.522 47.06c-.577 2.938-2.085 5.551-4.253 7.37-2.168 1.818-4.853 2.722-7.572 2.549-2.72-.173-5.292-1.413-7.256-3.495-1.964-2.082-3.19-4.87-3.455-7.86l-14.679-11.84c-4.06 0-7.953-1.78-10.824-4.948C1.613 25.67 0 21.373 0 16.893S1.613 8.116 4.483 4.948C7.354 1.78 11.248 0 15.307 0zm0 5.578c-2.027.002-4.007.668-5.692 1.912-1.684 1.244-2.996 3.011-3.771 5.078a12.407 12.407 0 00-.58 6.535c.395 2.194 1.371 4.208 2.805 5.79 1.433 1.582 3.259 2.66 5.246 3.096a9.362 9.362 0 005.922-.64c1.873-.856 3.474-2.304 4.602-4.163 1.127-1.859 1.73-4.044 1.732-6.281-.002-3.004-1.084-5.883-3.009-8.007-1.924-2.123-4.533-3.317-7.255-3.32zm86.26 2.192a7.84 7.84 0 00-4.337 1.324c-1.31.866-2.382 2.11-3.101 3.597l4.171-1.852v.025a6.091 6.091 0 015.001.184c1.582.776 2.829 2.2 3.477 3.971a8.068 8.068 0 01-.005 5.522c-.651 1.77-1.901 3.192-3.484 3.964v.024l-3.554 1.559a7.43 7.43 0 001.81.22c2.227.002 4.365-.971 5.942-2.707 1.577-1.736 2.465-4.092 2.468-6.55.003-2.458-.879-4.817-2.452-6.557-1.573-1.74-3.708-2.72-5.936-2.724zM41.353 35.1a7.817 7.817 0 00-4.238 1.267c-1.286.83-2.35 2.02-3.082 3.452a10.046 10.046 0 00-1.086 4.695 10.008 10.008 0 001.207 4.659c.769 1.407 1.863 2.564 3.17 3.352a7.782 7.782 0 004.27 1.133 7.852 7.852 0 004.204-1.396c1.264-.869 2.298-2.092 2.993-3.545a308.86 308.86 0 00-4.15 1.851 6.137 6.137 0 01-2.574.557 6.145 6.145 0 01-2.571-.58 6.693 6.693 0 01-2.17-1.628 7.486 7.486 0 01-1.435-2.424 8.052 8.052 0 01-.478-2.848c.013-.975.2-1.937.553-2.83a7.431 7.431 0 011.498-2.378 6.64 6.64 0 012.212-1.558l3.51-1.56a9.413 9.413 0 00-1.833-.219z" fill="#fff"/></svg>