<svg width="110" height="104" fill="none" xmlns="http://www.w3.org/2000/svg"><path d="M109.161 50.056a2.586 2.586 0 00-.751-1.672 2.823 2.823 0 00-1.705-.816l-6.728-1.039a1.446 1.446 0 01-.794-.397 1.333 1.333 0 01-.387-.772c-.128-.788-.262-1.607-.446-2.383a1.323 1.323 0 01.1-.837c.123-.263.33-.482.59-.627l5.978-3.167a2.64 2.64 0 001.297-1.367 2.48 2.48 0 00.015-1.845l-1.037-2.728a2.62 2.62 0 00-1.265-1.395 2.824 2.824 0 00-1.918-.235l-6.704 1.252c-.3.05-.609.01-.883-.116a1.419 1.419 0 01-.644-.588 44.684 44.684 0 00-1.26-2.107 1.351 1.351 0 01.116-1.627l4.46-4.917c.454-.464.714-1.07.733-1.704a2.533 2.533 0 00-.63-1.74l-1.947-2.231a2.721 2.721 0 00-1.681-.904 2.79 2.79 0 00-1.883.403l-5.87 3.362a1.47 1.47 0 01-1.677-.157 67.235 67.235 0 00-1.933-1.55 1.361 1.361 0 01-.493-.707 1.305 1.305 0 01.041-.848l2.43-6.108a2.48 2.48 0 00.087-1.84 2.62 2.62 0 00-1.218-1.431l-2.647-1.475a2.816 2.816 0 00-1.907-.29 2.718 2.718 0 00-1.623.999l-4.29 5.141a1.203 1.203 0 01-.654.468 1.261 1.261 0 01-.816-.037c-.16-.063-1.514-.59-2.566-.926a1.421 1.421 0 01-.716-.501 1.315 1.315 0 01-.266-.808l.103-6.527a2.543 2.543 0 00-.586-1.766 2.776 2.776 0 00-1.663-.957l-3.004-.5a2.853 2.853 0 00-1.896.344c-.567.33-.989.845-1.188 1.45l-2.23 6.21a1.377 1.377 0 01-.546.678 1.484 1.484 0 01-.86.236h-2.56a1.493 1.493 0 01-.85-.244 1.387 1.387 0 01-.54-.674l-2.22-6.176A2.639 2.639 0 0048.444.4 2.855 2.855 0 0046.54.048l-3.01.5a2.771 2.771 0 00-1.654.949 2.539 2.539 0 00-.591 1.753l.105 6.549c.002.293-.096.58-.278.817-.183.237-.44.411-.735.497-.601.223-1.906.698-2.498.909-.525.18-1.097-.018-1.56-.526l-4.266-5.007a2.716 2.716 0 00-1.62-1.007 2.816 2.816 0 00-1.912.284l-2.64 1.46a2.623 2.623 0 00-1.23 1.44 2.481 2.481 0 00.097 1.856l2.427 6.093c.106.272.12.569.04.848-.08.28-.25.529-.486.712-.638.5-1.291 1-1.942 1.557a1.467 1.467 0 01-1.666.16l-5.802-3.427a2.835 2.835 0 00-1.885-.394 2.766 2.766 0 00-1.686.894l-1.94 2.226a2.508 2.508 0 00-.64 1.739c.017.635.28 1.241.737 1.703l4.482 4.911a1.308 1.308 0 01.118 1.615c-.448.68-.876 1.397-1.264 2.113a1.423 1.423 0 01-.649.591 1.514 1.514 0 01-.89.115L7.01 30.744a2.83 2.83 0 00-1.919.235c-.587.3-1.038.797-1.267 1.394l-1.05 2.724a2.487 2.487 0 00.016 1.846c.242.593.703 1.08 1.297 1.37l5.977 3.167c.27.142.482.363.608.63.125.268.156.567.088.852l-.063.318c-.137.698-.263 1.36-.383 2.063a1.348 1.348 0 01-.388.762 1.46 1.46 0 01-.783.4l-6.74 1.038a2.789 2.789 0 00-1.71.854A2.542 2.542 0 000 50.114v2.899c-.004.636.24 1.25.684 1.725a2.738 2.738 0 001.72.843l6.738 1.037c.303.047.582.186.795.397.213.21.348.481.386.772.129.79.262 1.607.446 2.383.06.282.025.575-.099.837-.124.263-.33.482-.59.627l-5.976 3.172a2.639 2.639 0 00-1.297 1.368 2.48 2.48 0 00-.015 1.844l1.05 2.728a2.626 2.626 0 001.265 1.395c.587.3 1.27.384 1.918.235l6.704-1.24c.3-.051.61-.011.884.115.274.127.5.333.643.59.394.7.817 1.409 1.26 2.107a1.347 1.347 0 01-.115 1.627L11.94 80.49a2.547 2.547 0 00-.75 1.7 2.53 2.53 0 00.618 1.747l1.945 2.23a2.72 2.72 0 001.68.906 2.788 2.788 0 001.883-.405l5.87-3.362a1.47 1.47 0 011.677.158c.65.543 1.312 1.066 1.934 1.55.238.18.411.427.493.706.081.28.068.577-.039.848l-2.433 6.108a2.48 2.48 0 00-.087 1.841 2.62 2.62 0 001.218 1.431l2.653 1.462c.577.317 1.255.42 1.907.29a2.719 2.719 0 001.623-.996l4.343-5.094c.367-.433.944-.626 1.372-.46.913.36 1.525.562 2.608.908.289.09.54.265.717.5.177.236.27.52.267.81l-.105 6.52a2.549 2.549 0 00.587 1.766 2.784 2.784 0 001.662.958l3.005.5a2.85 2.85 0 001.896-.343 2.63 2.63 0 001.187-1.451l2.23-6.201c.101-.276.293-.514.546-.678a1.48 1.48 0 01.861-.236h2.559a1.5 1.5 0 01.851.244c.25.165.439.401.54.675l2.222 6.176a2.63 2.63 0 00.992 1.339 2.837 2.837 0 002.099.475l3.01-.5a2.777 2.777 0 001.655-.948 2.54 2.54 0 00.591-1.753l-.105-6.549c-.002-.288.092-.57.27-.804a1.42 1.42 0 01.714-.498 51.323 51.323 0 002.338-.813l.157-.058c.814-.268 1.208.058 1.436.328l4.395 5.164c.394.511.972.866 1.622.996.65.13 1.329.027 1.905-.29l2.642-1.459a2.62 2.62 0 001.222-1.434 2.48 2.48 0 00-.09-1.845l-2.425-6.093a1.321 1.321 0 01-.042-.848c.08-.28.25-.53.485-.712.638-.5 1.291-1.001 1.942-1.557a1.47 1.47 0 011.674-.155l5.875 3.354a2.833 2.833 0 001.885.394 2.763 2.763 0 001.687-.894l1.942-2.228c.43-.485.659-1.104.64-1.74a2.52 2.52 0 00-.737-1.702l-4.477-4.924a1.308 1.308 0 01-.118-1.615c.449-.678.876-1.394 1.265-2.113.145-.257.373-.463.649-.59a1.52 1.52 0 01.888-.116l6.686 1.244a2.83 2.83 0 001.919-.235 2.626 2.626 0 001.267-1.394L106.375 68a2.488 2.488 0 00-.016-1.845 2.643 2.643 0 00-1.297-1.37l-5.982-3.17a1.378 1.378 0 01-.599-.63 1.295 1.295 0 01-.086-.845l.063-.318c.136-.699.262-1.36.383-2.063.042-.286.177-.553.387-.762a1.46 1.46 0 01.783-.4l6.741-1.036a2.785 2.785 0 001.714-.853 2.542 2.542 0 00.695-1.72v-2.931zM35.044 73.588a4.04 4.04 0 01-1.334 1.344 4.33 4.33 0 01-3.753.374 4.155 4.155 0 01-1.596-1.053c-5.912-6.235-9.176-14.349-9.155-22.756.02-8.408 3.323-16.506 9.265-22.716a4.16 4.16 0 011.603-1.05 4.335 4.335 0 011.929-.237 4.29 4.29 0 011.83.627c.55.344 1.005.808 1.33 1.354L47.14 49.587c.36.6.55 1.28.55 1.97 0 .692-.19 1.37-.55 1.97l-12.096 20.06zm19.537 11.81a37 37 0 01-7.43-.75 4.234 4.234 0 01-1.732-.808 3.981 3.981 0 01-1.163-1.468 3.797 3.797 0 01.212-3.573l12.07-20.026a4.053 4.053 0 011.518-1.453 4.298 4.298 0 012.077-.532h24.178a4.31 4.31 0 011.875.424c.582.28 1.086.687 1.472 1.188.386.5.642 1.08.75 1.693a3.78 3.78 0 01-.134 1.834c-4.59 13.598-17.949 23.471-33.693 23.471zm1.97-41.029L44.61 24.308a3.798 3.798 0 01-.194-3.57 3.985 3.985 0 011.167-1.462 4.235 4.235 0 011.733-.801 36.818 36.818 0 017.266-.721c15.744 0 29.103 9.873 33.685 23.478a3.78 3.78 0 01.134 1.834 3.861 3.861 0 01-.75 1.694c-.386.5-.89.907-1.472 1.187a4.308 4.308 0 01-1.874.425H60.162a4.295 4.295 0 01-2.09-.535 4.049 4.049 0 01-1.52-1.468z" fill="#fff"/></svg>