<svg width="18" height="18" viewBox="0 0 18 18" fill="none" xmlns="http://www.w3.org/2000/svg">
<path d="M9 0.140625C5.20049 0.140625 2.10938 3.23174 2.10938 7.03125C2.10938 8.87695 3.22759 11.2472 5.43294 14.0758C6.44332 15.3684 7.5375 16.5932 8.70841 17.7424C8.78692 17.8175 8.89137 17.8594 9 17.8594C9.10863 17.8594 9.21308 17.8175 9.29159 17.7424C10.4625 16.5932 11.5567 15.3684 12.5671 14.0758C14.7724 11.2472 15.8906 8.87695 15.8906 7.03125C15.8906 3.23174 12.7995 0.140625 9 0.140625ZM9 11.9531C6.28594 11.9531 4.07812 9.74531 4.07812 7.03125C4.07812 4.31719 6.28594 2.10938 9 2.10938C11.7141 2.10938 13.9219 4.31719 13.9219 7.03125C13.9219 9.74531 11.7141 11.9531 9 11.9531Z" fill="#47809F"/>
<path d="M12.3775 6.43784L9.28374 3.62534C9.20609 3.55474 9.10491 3.51562 8.99996 3.51562C8.89502 3.51562 8.79384 3.55474 8.71618 3.62534L5.62244 6.43784C5.55036 6.50338 5.50318 6.59184 5.48889 6.68821C5.4746 6.78458 5.49409 6.88292 5.54404 6.96656C5.58345 7.03024 5.63869 7.08262 5.70437 7.1186C5.77005 7.15458 5.84392 7.17293 5.91881 7.17187H6.32809V9.84375C6.32809 9.95564 6.37254 10.0629 6.45166 10.1421C6.53077 10.2212 6.63808 10.2656 6.74997 10.2656H7.73434C7.84623 10.2656 7.95353 10.2212 8.03265 10.1421C8.11177 10.0629 8.15621 9.95564 8.15621 9.84375V8.29687C8.15621 8.18498 8.20066 8.07768 8.27978 7.99856C8.3589 7.91944 8.4662 7.875 8.57809 7.875H9.42184C9.53373 7.875 9.64103 7.91944 9.72015 7.99856C9.79926 8.07768 9.84371 8.18498 9.84371 8.29687V9.84375C9.84371 9.95564 9.88816 10.0629 9.96728 10.1421C10.0464 10.2212 10.1537 10.2656 10.2656 10.2656H11.25C11.3618 10.2656 11.4692 10.2212 11.5483 10.1421C11.6274 10.0629 11.6718 9.95564 11.6718 9.84375V7.17187H12.0811C12.156 7.17293 12.2299 7.15458 12.2956 7.1186C12.3612 7.08262 12.4165 7.03024 12.4559 6.96656C12.5058 6.88292 12.5253 6.78458 12.511 6.68821C12.4967 6.59184 12.4496 6.50338 12.3775 6.43784Z" fill="#47809F"/>
</svg>
