<svg width="18" height="18" viewBox="0 0 18 18" fill="none" xmlns="http://www.w3.org/2000/svg">
<g clip-path="url(#clip0)">
<path d="M17.5101 13.2102L14.9981 10.6982C14.101 9.80111 12.5759 10.16 12.217 11.3262C11.9479 12.1337 11.0508 12.5822 10.2434 12.4028C8.4491 11.9542 6.02686 9.62168 5.5783 7.73772C5.30916 6.93027 5.84744 6.03314 6.65485 5.76404C7.82111 5.40519 8.17996 3.88007 7.28284 2.98295L4.77088 0.470991C4.05318 -0.156997 2.97663 -0.156997 2.34864 0.470991L0.644103 2.17553C-1.06044 3.96978 0.823529 8.72455 5.04002 12.941C9.25652 17.1575 14.0113 19.1313 15.8055 17.337L17.5101 15.6324C18.1381 14.9147 18.1381 13.8382 17.5101 13.2102Z" fill="#47809F"/>
</g>
<defs>
<clipPath id="clip0">
<rect width="18" height="18" fill="white"/>
</clipPath>
</defs>
</svg>
