<svg width="110" height="104" viewBox="0 0 110 104" fill="none" xmlns="http://www.w3.org/2000/svg">
<path d="M109.161 50.0565C109.126 49.4319 108.86 48.8393 108.41 48.3839C107.961 47.9284 107.357 47.6395 106.705 47.5683L99.9771 46.5294C99.6744 46.482 99.3959 46.3426 99.1831 46.132C98.9703 45.9213 98.8346 45.6506 98.7962 45.3604C98.6676 44.5718 98.5338 43.7532 98.3501 42.9772C98.2909 42.695 98.3256 42.4021 98.4494 42.1396C98.5731 41.877 98.7797 41.6579 99.0403 41.5128L105.018 38.3461C105.611 38.0575 106.073 37.5708 106.315 36.9786C106.557 36.3864 106.562 35.7301 106.33 35.1344L105.293 32.4058C105.066 31.8081 104.616 31.3114 104.028 31.0107C103.441 30.71 102.758 30.6265 102.11 30.7762L95.4059 32.0278C95.1061 32.0789 94.7971 32.0384 94.5229 31.9121C94.2486 31.7858 94.0232 31.5801 93.8787 31.3244C93.4877 30.626 93.0626 29.915 92.6192 29.2166C92.4581 28.9678 92.3826 28.6771 92.4033 28.3854C92.424 28.0936 92.5399 27.8153 92.7346 27.5895L97.1955 22.673C97.6487 22.2089 97.909 21.6031 97.9278 20.9691C97.9467 20.3351 97.7227 19.7163 97.2979 19.2285L95.3508 16.998C94.9272 16.5085 94.3283 16.1863 93.67 16.0938C93.0117 16.0013 92.3409 16.1451 91.7873 16.4974L85.9173 19.8593C85.657 20.008 85.3535 20.073 85.0516 20.0446C84.7497 20.0162 84.4653 19.896 84.2405 19.7016C83.5924 19.1584 82.9285 18.6352 82.3066 18.152C82.0679 17.9724 81.8954 17.7248 81.8143 17.4452C81.7331 17.1657 81.7475 16.8687 81.8552 16.5975L84.2851 10.4895C84.5497 9.90665 84.5807 9.25142 84.3722 8.64825C84.1637 8.04507 83.7303 7.53597 83.1542 7.21765L80.5065 5.7432C79.9299 5.42606 79.251 5.32297 78.5998 5.45369C77.9486 5.58441 77.3708 5.93975 76.9771 6.45163L72.6867 11.5934C72.5324 11.8169 72.3013 11.9821 72.0331 12.0607C71.765 12.1393 71.4765 12.1263 71.2173 12.024C71.0572 11.9614 69.7032 11.4332 68.6509 11.0978C68.3623 11.008 68.1113 10.8325 67.9347 10.597C67.7582 10.3614 67.6652 10.0781 67.6695 9.78853L67.7719 3.26244C67.8084 2.6252 67.6002 1.9971 67.1863 1.49575C66.7723 0.994412 66.181 0.654208 65.523 0.53885L62.5185 0.0381906C61.8638 -0.0696989 61.1904 0.0527989 60.6233 0.382921C60.0562 0.713043 59.634 1.22834 59.4352 1.83305L57.2047 8.04373C57.1034 8.31943 56.9122 8.55692 56.6591 8.72135C56.4059 8.88579 56.1043 8.96853 55.7982 8.95743H53.2398C52.9361 8.96339 52.6382 8.87779 52.3885 8.71284C52.1388 8.54789 51.95 8.31199 51.849 8.03873L49.629 1.86309C49.4337 1.25396 49.0124 0.733639 48.4438 0.399563C47.8753 0.065486 47.1986 -0.0594313 46.5405 0.048204L43.5307 0.548863C42.877 0.663311 42.2889 1.00018 41.8758 1.49693C41.4627 1.99369 41.2526 2.61656 41.2845 3.24992L41.3895 9.79854C41.3916 10.0925 41.2941 10.3792 41.1116 10.616C40.9291 10.8528 40.6713 11.027 40.3766 11.1128C39.7757 11.3356 38.4715 11.8112 37.8785 12.0215C37.3537 12.2017 36.7816 12.0039 36.3198 11.4958L32.053 6.48918C31.6616 5.97417 31.0843 5.6154 30.4323 5.48185C29.7803 5.3483 29.0996 5.44941 28.521 5.76573L25.8812 7.22515C25.2988 7.54407 24.8607 8.05736 24.6514 8.66609C24.4421 9.27483 24.4764 9.93594 24.7476 10.522L27.1749 16.615C27.2808 16.8868 27.2947 17.1835 27.2147 17.4632C27.1347 17.743 26.9647 17.9917 26.7288 18.1746C26.0912 18.6752 25.4378 19.1759 24.787 19.7316C24.5635 19.9245 24.2813 20.0441 23.9814 20.0729C23.6816 20.1017 23.38 20.0383 23.1207 19.8918L17.3189 16.4648C16.7618 16.1191 16.0916 15.9792 15.4341 16.0714C14.7765 16.1636 14.1768 16.4815 13.7475 16.9655L11.8084 19.1909C11.3776 19.6755 11.1493 20.2945 11.1673 20.9296C11.1852 21.5647 11.448 22.1712 11.9054 22.6329L16.3874 27.5444C16.5862 27.7657 16.7051 28.0423 16.7264 28.3331C16.7477 28.6239 16.6702 28.9135 16.5054 29.159C16.0567 29.8399 15.629 30.5559 15.2406 31.2718C15.0954 31.5294 14.8683 31.7364 14.5921 31.8632C14.3158 31.99 14.0045 32.0301 13.7029 31.9777L7.00893 30.7436C6.36081 30.5944 5.6778 30.6781 5.09023 30.9787C4.50266 31.2793 4.05167 31.7757 3.82331 32.3733L2.77368 35.0969C2.54168 35.6933 2.54711 36.3502 2.78893 36.9431C3.03075 37.5359 3.49216 38.0236 4.08572 38.3136L10.0633 41.4803C10.3322 41.6218 10.5454 41.8429 10.6708 42.1103C10.7963 42.3776 10.8271 42.6767 10.7587 42.9622L10.6957 43.2801C10.5593 43.9785 10.4333 44.6394 10.3126 45.3428C10.2709 45.6295 10.1352 45.8962 9.92504 46.1048C9.71483 46.3134 9.44086 46.4533 9.1423 46.5044L2.40107 47.5432C1.74181 47.6205 1.13456 47.924 0.692717 48.3971C0.250875 48.8702 0.00465636 49.4805 4.47421e-05 50.1141V53.0129C-0.0037971 53.649 0.239897 54.2638 0.683941 54.7383C1.12798 55.2127 1.74079 55.5131 2.40369 55.5813L9.1423 56.6177C9.44511 56.6647 9.72382 56.804 9.93669 57.0147C10.1496 57.2255 10.2851 57.4963 10.3231 57.7867C10.4517 58.5778 10.5855 59.3938 10.7692 60.1699C10.8284 60.4521 10.7937 60.745 10.67 61.0075C10.5463 61.2701 10.3397 61.4892 10.0791 61.6343L4.10409 64.806C3.51053 65.0946 3.04889 65.5813 2.80697 66.1735C2.56506 66.7657 2.55975 67.422 2.79205 68.0177L3.84168 70.7463C4.06951 71.3437 4.52001 71.84 5.10714 72.1406C5.69428 72.4413 6.37691 72.525 7.02467 72.3759L13.7292 71.1368C14.029 71.0849 14.3384 71.125 14.6128 71.2514C14.8872 71.3778 15.1125 71.584 15.2564 71.8402C15.65 72.5412 16.0725 73.2496 16.5159 73.948C16.6778 74.1966 16.7537 74.4874 16.733 74.7793C16.7123 75.0713 16.5959 75.3496 16.4005 75.5751L11.9396 80.4891C11.4811 80.9497 11.2147 81.5542 11.1906 82.189C11.1664 82.8237 11.3861 83.445 11.8084 83.9362L13.7528 86.1666C14.176 86.6566 14.775 86.9792 15.4334 87.0717C16.0919 87.1642 16.7629 87.0201 17.3163 86.6673L23.1863 83.3053C23.4466 83.1566 23.7501 83.0916 24.052 83.12C24.3539 83.1484 24.6383 83.2687 24.8631 83.463C25.5139 84.0063 26.1751 84.5294 26.797 85.0126C27.0355 85.1924 27.208 85.4399 27.2896 85.7193C27.3712 85.9987 27.3576 86.2955 27.251 86.5671L24.8185 92.6752C24.5539 93.258 24.5229 93.9132 24.7314 94.5164C24.9399 95.1195 25.3733 95.6287 25.9495 95.947L28.6024 97.4089C29.1786 97.7263 29.8573 97.8298 30.5085 97.6995C31.1597 97.5693 31.7377 97.2144 32.1318 96.703L36.4746 91.6088C36.842 91.1757 37.4193 90.9829 37.847 91.1482C38.7602 91.5086 39.3716 91.7114 40.4553 92.0569C40.744 92.1468 40.995 92.3223 41.172 92.5578C41.349 92.7932 41.4426 93.0764 41.4393 93.3661L41.3344 99.8872C41.299 100.524 41.5076 101.152 41.9213 101.653C42.3351 102.154 42.9257 102.494 43.5832 102.611L46.5877 103.111C47.2425 103.22 47.9165 103.098 48.4838 102.768C49.0512 102.438 49.4732 101.922 49.671 101.317L51.9015 95.1159C52.0024 94.84 52.1936 94.6023 52.4468 94.4378C52.7 94.2733 53.0019 94.1907 53.308 94.2022H55.8665C56.1702 94.1958 56.4683 94.2813 56.7181 94.4463C56.9679 94.6113 57.1566 94.8474 57.2572 95.1209L59.4798 101.297C59.652 101.833 59.9997 102.302 60.4719 102.636C60.9442 102.97 61.5161 103.15 62.1039 103.151C62.2605 103.152 62.4169 103.138 62.571 103.111L65.5808 102.611C66.2345 102.496 66.8225 102.159 67.2356 101.663C67.6487 101.166 67.8589 100.543 67.827 99.9097L67.722 93.3611C67.72 93.0726 67.8142 92.7909 67.9911 92.5569C68.168 92.3229 68.4184 92.1486 68.706 92.0594C69.7137 91.7364 70.4222 91.4761 71.0441 91.2458L71.2015 91.1882C72.015 90.9204 72.4086 91.2458 72.6369 91.5161L77.0322 96.6804C77.4262 97.1913 78.0036 97.5457 78.6543 97.6759C79.3049 97.8061 79.983 97.7031 80.5589 97.3864L83.2014 95.927C83.7794 95.6085 84.2142 95.098 84.4228 94.4932C84.6314 93.8883 84.5992 93.2313 84.3324 92.6476L81.9077 86.5546C81.8007 86.2831 81.786 85.9865 81.8656 85.7066C81.9452 85.4266 82.1151 85.1777 82.3512 84.9951C82.9888 84.4944 83.6422 83.9937 84.293 83.438C84.5179 83.2446 84.8019 83.1251 85.1033 83.0972C85.4046 83.0692 85.7074 83.1343 85.9671 83.2828L91.8424 86.6372C92.3994 86.9835 93.0697 87.1237 93.7274 87.0315C94.3851 86.9393 94.9848 86.621 95.4138 86.1366L97.3556 83.9086C97.7864 83.4241 98.0146 82.805 97.9967 82.1699C97.9788 81.5348 97.716 80.9283 97.2585 80.4666L92.7819 75.5426C92.583 75.3213 92.4641 75.0447 92.4428 74.7539C92.4215 74.4631 92.499 74.1735 92.6638 73.928C93.1125 73.2496 93.5402 72.5336 93.9286 71.8152C94.0745 71.5582 94.3016 71.3516 94.5777 71.2249C94.8538 71.0981 95.1647 71.0577 95.4663 71.1093L102.152 72.3534C102.801 72.5026 103.484 72.4189 104.071 72.1183C104.659 71.8178 105.11 71.3213 105.338 70.7238L106.375 68.0002C106.606 67.4041 106.601 66.7476 106.359 66.1551C106.117 65.5627 105.656 65.0755 105.062 64.7859L99.0796 61.6143C98.8145 61.4713 98.6048 61.2507 98.4814 60.9852C98.3581 60.7196 98.3277 60.4232 98.3947 60.1398L98.4577 59.8219C98.5942 59.1235 98.7201 58.4626 98.8408 57.7592C98.8826 57.4726 99.0182 57.2059 99.2284 56.9973C99.4386 56.7886 99.7126 56.6488 100.011 56.5977L106.752 55.5613C107.413 55.4852 108.022 55.1819 108.466 54.7083C108.909 54.2346 109.157 53.623 109.161 52.9879V50.0565ZM35.0445 73.5875C34.7175 74.13 34.2602 74.5907 33.7103 74.9317C33.1604 75.2728 32.5335 75.4845 31.8811 75.5495C31.2287 75.6145 30.5694 75.5309 29.9575 75.3056C29.3456 75.0803 28.7984 74.7197 28.361 74.2534C22.4493 68.0177 19.1852 59.9045 19.2056 51.4969C19.226 43.0893 22.5294 34.9906 28.4712 28.781C28.9109 28.3149 29.4604 27.9552 30.0744 27.7314C30.6885 27.5077 31.3494 27.4263 32.0029 27.494C32.6564 27.5617 33.2836 27.7766 33.833 28.1209C34.3823 28.4652 34.838 28.9292 35.1626 29.4745L47.1414 49.5884C47.5011 50.1883 47.6904 50.8674 47.6904 51.5585C47.6904 52.2496 47.5011 52.9287 47.1414 53.5286L35.0445 73.5875ZM54.5807 85.3981C52.0836 85.3987 49.5934 85.147 47.1519 84.6471C46.5159 84.5115 45.9223 84.2349 45.4192 83.8397C44.9161 83.4445 44.5177 82.9417 44.2563 82.3722C43.9948 81.8027 43.8777 81.1825 43.9144 80.5617C43.9511 79.941 44.1406 79.3373 44.4675 78.7994L56.5382 58.773C56.9013 58.1696 57.4249 57.6682 58.0561 57.3197C58.6873 56.9711 59.4038 56.7877 60.1332 56.7879H84.3114C84.9626 56.7869 85.605 56.9324 86.1864 57.2124C86.7678 57.4924 87.2718 57.8991 87.6577 58.3996C88.0436 58.9001 88.3005 59.4803 88.4075 60.0932C88.5145 60.7061 88.4687 61.3344 88.2737 61.9272C83.6842 75.5251 70.3251 85.3981 54.5807 85.3981ZM56.5513 44.3691L44.6092 24.3076C44.2856 23.7689 44.0993 23.1651 44.0656 22.5451C44.0318 21.925 44.1514 21.306 44.4148 20.7382C44.6782 20.1704 45.0779 19.6697 45.5816 19.2765C46.0854 18.8834 46.679 18.6088 47.3146 18.475C49.7038 17.9946 52.139 17.753 54.5807 17.754C70.3251 17.754 83.6842 27.627 88.2658 41.2324C88.4608 41.8252 88.5066 42.4535 88.3996 43.0664C88.2926 43.6793 88.0358 44.2595 87.6499 44.76C87.264 45.2605 86.7599 45.6672 86.1785 45.9472C85.5971 46.2273 84.9548 46.3727 84.3035 46.3717H60.1621C59.4282 46.3731 58.7071 46.1884 58.0726 45.8365C57.4382 45.4846 56.9132 44.9782 56.5513 44.3691Z" fill="white"/>
</svg>
