<svg width="113" height="57" viewBox="0 0 113 57" fill="none" xmlns="http://www.w3.org/2000/svg">
<path d="M7.31707 16.856C7.31707 18.5904 7.7831 20.2858 8.65623 21.7279C9.52937 23.1699 10.7704 24.2939 12.2224 24.9576C13.6743 25.6213 15.272 25.7949 16.8134 25.4566C18.3548 25.1182 19.7707 24.2831 20.882 23.0567C21.9933 21.8303 22.7501 20.2678 23.0567 18.5668C23.3633 16.8658 23.2059 15.1026 22.6045 13.5003C22.0031 11.8979 20.9846 10.5284 19.6778 9.56485C18.3711 8.6013 16.8348 8.087 15.2632 8.087C13.1558 8.087 11.1346 9.01088 9.64444 10.6554C8.15425 12.2999 7.31707 14.5303 7.31707 16.856V16.856ZM15.3074 0C19.3431 0.00104355 23.2155 1.75906 26.0836 4.89226C28.9517 8.02546 30.5839 12.2808 30.6257 16.7342L40.1611 31.8365C40.5569 31.7879 40.9548 31.7635 41.353 31.7634C43.4056 31.762 45.4199 32.3766 47.1802 33.5416L90.3984 14.3715C90.8604 12.0472 91.9087 9.91443 93.4221 8.21942C94.9355 6.52441 96.8524 5.33622 98.9515 4.79201C101.051 4.24779 103.246 4.36973 105.285 5.14375C107.324 5.91776 109.124 7.3123 110.475 9.16641C111.827 11.0205 112.676 13.2586 112.924 15.6224C113.172 17.9861 112.81 20.3792 111.878 22.5253C110.947 24.6715 109.485 26.4832 107.66 27.7515C105.836 29.0197 103.723 29.6928 101.567 29.6929C99.5145 29.6944 97.5003 29.0797 95.7399 27.9148L52.5218 47.0605C51.9454 49.9978 50.4372 52.6112 48.2691 54.4297C46.1009 56.2483 43.4155 57.1524 40.6967 56.979C37.9779 56.8056 35.4047 55.5662 33.4408 53.4841C31.4769 51.4021 30.2516 48.6143 29.9856 45.6234L15.3074 33.7852C11.2476 33.7852 7.35411 32.0054 4.48342 28.8374C1.61274 25.6695 0 21.3728 0 16.8926C0 12.4124 1.61274 8.1157 4.48342 4.94772C7.35411 1.77975 11.2476 0 15.3074 0V0ZM15.3074 5.57808C13.2805 5.58049 11.2998 6.24582 9.6154 7.48999C7.93104 8.73417 6.61864 10.5014 5.844 12.5683C5.06937 14.6353 4.86726 16.9092 5.26321 19.1029C5.65917 21.2966 6.63542 23.3115 8.06863 24.8931C9.50183 26.4748 11.3277 27.5521 13.3155 27.9891C15.3033 28.426 17.3638 28.203 19.2368 27.3481C21.1098 26.4933 22.7112 25.045 23.8386 23.1862C24.966 21.3274 25.5689 19.1415 25.5711 16.9048C25.5688 13.9015 24.4867 11.022 22.5623 8.89844C20.638 6.77483 18.0288 5.58066 15.3074 5.57808V5.57808ZM101.567 7.77034C100.04 7.76952 98.5405 8.2269 97.2303 9.09358C95.9201 9.96026 94.848 11.2036 94.1286 12.6907L98.3004 10.8395V10.8639C99.9258 10.2065 101.719 10.2726 103.301 11.0481C104.883 11.8236 106.13 13.2477 106.778 15.0193C107.426 16.7909 107.424 18.7712 106.773 20.5413C106.122 22.3114 104.872 23.7327 103.289 24.5046V24.5289L99.7351 26.0879C100.329 26.2356 100.936 26.3091 101.545 26.3071C103.772 26.3103 105.91 25.337 107.487 23.6011C109.064 21.8652 109.952 19.509 109.955 17.0509C109.958 14.5928 109.076 12.234 107.503 10.4936C105.93 8.75316 103.795 7.77357 101.567 7.77034V7.77034ZM41.353 35.1005C39.8636 35.1011 38.401 35.5382 37.1149 36.3672C35.8287 37.1961 34.7651 38.3872 34.0329 39.8185C33.3006 41.2498 32.926 42.8701 32.9472 44.5136C32.9685 46.1571 33.3849 47.7649 34.1539 49.1726C34.9229 50.5803 36.0169 51.7373 37.324 52.5254C38.6311 53.3135 40.1044 53.7043 41.5932 53.658C43.0821 53.6116 44.533 53.1297 45.7978 52.2616C47.0625 51.3934 48.0956 50.1702 48.7915 48.7169C47.4009 49.3258 46.0324 49.9348 44.6418 50.5681C43.8253 50.9399 42.9501 51.1293 42.0668 51.1253C41.1835 51.1214 40.3097 50.9242 39.4959 50.5452C38.6821 50.1662 37.9445 49.6129 37.3257 48.9172C36.7069 48.2216 36.2193 47.3975 35.891 46.4926C35.5627 45.5876 35.4003 44.6198 35.4131 43.6452C35.4259 42.6705 35.6137 41.7083 35.9656 40.8142C36.3176 39.9202 36.8267 39.112 37.4635 38.4365C38.1003 37.761 38.8521 37.2315 39.6755 36.8787L43.1851 35.3197C42.5815 35.1866 41.9684 35.1133 41.353 35.1005V35.1005Z" fill="white"/>
</svg>
